<svg xmlns="http://www.w3.org/2000/svg" xmlns:xlink="http://www.w3.org/1999/xlink" viewBox="1268 4763 146.303 151.938"><defs><style>.a,.c{fill:none;}.a{clip-rule:evenodd;}.b{clip-path:url(#a);}.d{clip-path:url(#b);}.e{fill:#fffefe;}.f{clip-path:url(#c);}.g{clip-path:url(#d);}.h{clip-path:url(#e);}</style><clipPath id="a"><path class="a" d="M146.3,16.117V-62.041c-.075-.062-50.8-50.9-51.3-51.272A6.7,6.7,0,0,0,89.654-116a6.726,6.726,0,0,0-6.726,6.726,6.7,6.7,0,0,0,2.688,5.349c.374.495,3.106,3.219,3.388,3.483a8.816,8.816,0,0,1-4.2-1.4H81.481A3.971,3.971,0,0,0,77.643-98.9l-2.658,9.913c-.27-.284-6.93-6.96-7.4-7.359a10.735,10.735,0,0,0-8.236-3.838A10.764,10.764,0,0,0,48.581-89.418a10.741,10.741,0,0,0,3.84,8.237c.4.473,5.652,5.714,5.876,5.936A14.077,14.077,0,0,1,56.52-75.5c-.152-.142-27.491-27.53-27.973-27.918a8.656,8.656,0,0,0-6.751-3.233,8.674,8.674,0,0,0-8.676,8.674,8.654,8.654,0,0,0,3.233,6.751c.39.482,4.338,4.413,4.562,4.636a11.393,11.393,0,0,1-5.383-1.806H11.254a5.124,5.124,0,0,0-4.951,3.8L.082-61.386a2.365,2.365,0,0,0,1.409,2.8c.238.591,8.385,8.725,8.82,8.993L8.909-26.9a2.305,2.305,0,0,0,1.465,2.288c.232.6,60.348,60.454,60.406,60.553h55.7a19.82,19.82,0,0,0,19.82-19.82" transform="translate(-0.001 116)"/></clipPath><clipPath id="b"><path class="a" d="M69.9-102.548a6.726,6.726,0,0,0,6.728-6.726A6.726,6.726,0,0,0,69.9-116a6.726,6.726,0,0,0-6.726,6.726,6.726,6.726,0,0,0,6.726,6.726" transform="translate(-63.174 116)"/></clipPath><clipPath id="c"><path class="a" d="M33.4-51.106,32.61-63.832V-74.209l2.862,10.679a2.365,2.365,0,0,0,.9,1.3Zm73.1-33.17-4.823-17.994a3.975,3.975,0,0,0-3.84-2.946H94.511a8.822,8.822,0,0,1-4.856,1.451,8.822,8.822,0,0,1-4.856-1.451H81.481a3.971,3.971,0,0,0-3.838,2.946L72.82-84.276A1.839,1.839,0,0,0,74.6-81.961h2.679a1.839,1.839,0,0,0,1.776-1.363l2.22-8.28v8.047L80.4-69.386l-1.822-6.8A6.362,6.362,0,0,0,72.429-80.9H67.118a14.128,14.128,0,0,1-7.772,2.322A14.135,14.135,0,0,1,51.573-80.9H46.262a6.346,6.346,0,0,0-5.956,4.19L37.29-87.965a5.127,5.127,0,0,0-4.951-3.8H28.059A11.382,11.382,0,0,1,21.8-89.894a11.387,11.387,0,0,1-6.264-1.871H11.254a5.123,5.123,0,0,0-4.951,3.8L.082-64.758a2.373,2.373,0,0,0,2.292,2.986H5.829a2.372,2.372,0,0,0,2.291-1.759l2.862-10.679v10.377L8.91-30.275a2.313,2.313,0,0,0,2.308,2.456h6.645a2.312,2.312,0,0,0,2.308-2.17L21.7-54.829l.092,1.493.093-1.493,1.532,24.84a2.314,2.314,0,0,0,2.309,2.17h6.643a2.313,2.313,0,0,0,2.309-2.456l-.851-13.773a2.9,2.9,0,0,0,1.41.369h4.287a2.942,2.942,0,0,0,2.843-2.182l3.552-13.252v12.877L43.354-4.591a2.869,2.869,0,0,0,2.864,3.045h8.245a2.87,2.87,0,0,0,2.866-2.692l1.9-30.826.114,1.854.114-1.854,1.9,30.826a2.868,2.868,0,0,0,2.864,2.692h8.246a2.87,2.87,0,0,0,2.864-3.045L72.768-46.235V-59.112L76.32-45.861a2.944,2.944,0,0,0,2.843,2.182H83.45a2.944,2.944,0,0,0,2.842-3.706l-2.211-8.25h2.524a1.794,1.794,0,0,0,1.79-1.683l1.188-19.26.072,1.158.071-1.158,1.189,19.26a1.792,1.792,0,0,0,1.789,1.683h5.152a1.793,1.793,0,0,0,1.789-1.9L98.042-83.557V-91.6l2.218,8.28a1.837,1.837,0,0,0,1.776,1.363h2.679A1.84,1.84,0,0,0,106.492-84.276Z" transform="translate(0 105.216)"/></clipPath><clipPath id="d"><path class="a" d="M47.773-82.421A10.766,10.766,0,0,0,58.539-93.186,10.765,10.765,0,0,0,47.773-103.95,10.764,10.764,0,0,0,37.009-93.186,10.765,10.765,0,0,0,47.773-82.421" transform="translate(-37.009 103.95)"/></clipPath><clipPath id="e"><path class="a" d="M18.671-91.526a8.675,8.675,0,0,0,8.674-8.676,8.674,8.674,0,0,0-8.674-8.674A8.674,8.674,0,0,0,10-100.2a8.676,8.676,0,0,0,8.676,8.676" transform="translate(-9.995 108.876)"/></clipPath></defs><g transform="translate(1268 4763)"><g class="b" transform="translate(0.001)"><path class="c" d="M-5,44.064H154.429V-121H-5Z" transform="translate(-1.564 114.437)"/></g><g class="d" transform="translate(82.928)"><path class="e" d="M58.174-94.421h26.58V-121H58.174Z" transform="translate(-64.738 114.437)"/></g><g class="f" transform="translate(0 14.156)"><path class="e" d="M-5,6.581H114.682v-116.8H-5Z" transform="translate(-1.563 103.653)"/></g><g class="g" transform="translate(48.581 15.818)"><path class="e" d="M32.009-74.294H66.665V-108.95H32.009Z" transform="translate(-38.573 102.387)"/></g><g class="h" transform="translate(13.121 9.352)"><path class="e" d="M5-83.4H35.472v-30.477H5Z" transform="translate(-11.559 107.313)"/></g></g></svg>