<svg xmlns="http://www.w3.org/2000/svg" viewBox="2885.875 4545.243 32.346 32.346">
  <defs>
    <style>
      .cls-1 {
        fill: #008c9d;
      }
    </style>
  </defs>
  <path id="Facebook_1_" class="cls-1" d="M-1108.645-12.368a1.716,1.716,0,0,1-1.723,1.723h-8.23V-23.277h4.211l.574-4.976h-4.785v-3.062c0-1.34.383-2.3,2.488-2.3h2.679v-4.4c-.383,0-1.914-.191-3.828-.191-3.828,0-6.316,2.3-6.316,6.508v3.637h-4.211v4.976h4.211v12.632h-15.5a1.715,1.715,0,0,1-1.723-1.723v-28.9a1.715,1.715,0,0,1,1.723-1.723h28.9a1.716,1.716,0,0,1,1.723,1.723v28.71" transform="translate(4026.675 4588.043)"/>
</svg>
