<svg id="Groupe_1325" data-name="Groupe 1325" xmlns="http://www.w3.org/2000/svg" viewBox="1455.855 37.855 26.145 26.145">
  <defs>
    <style>
      .cls-1 {
        fill: #fefefe;
      }

      .cls-2, .cls-4 {
        fill: none;
      }

      .cls-2 {
        stroke: #fff;
      }

      .cls-3 {
        stroke: none;
      }
    </style>
  </defs>
  <path id="Tracé_2549" data-name="Tracé 2549" class="cls-1" d="M69.024,94.547c.388-.967.754-1.87,1.116-2.779q.773-1.929,1.541-3.863a.275.275,0,0,1,.308-.2c1.132.011,2.269.005,3.4.005.074,0,.186-.069.223.058a.265.265,0,0,1-.106.276c-.313.287-.611.59-.925.877a.563.563,0,0,0-.2.462q.008,3.841,0,7.678a.578.578,0,0,0,.191.468c.3.282.6.584.893.871.09.085.159.181.112.3s-.17.053-.26.053q-2.471.008-4.941,0c-.08,0-.191.058-.234-.048a.264.264,0,0,1,.1-.3c.324-.3.638-.616.956-.925a.458.458,0,0,0,.165-.345c-.005-2.062-.005-4.128-.005-6.19a.781.781,0,0,0-.027-.09c-.266.669-.515,1.3-.765,1.934q-1.124,2.861-2.248,5.717c-.048.128-.09.228-.271.223a.327.327,0,0,1-.34-.213q-1.682-3.69-3.369-7.369a.573.573,0,0,0-.165-.234v.276c0,1.647.005,3.294-.005,4.941a.936.936,0,0,0,.234.627c.436.521.871,1.052,1.3,1.578a.534.534,0,0,1,.117.175c.027.112.037.218-.154.218-1.275-.005-2.55,0-3.826-.005-.17,0-.223-.122-.117-.282.085-.122.186-.234.282-.351.356-.43.707-.866,1.068-1.286a1.053,1.053,0,0,0,.26-.723c-.011-2.008-.011-4.022,0-6.031a.852.852,0,0,0-.213-.6c-.393-.457-.77-.925-1.158-1.387-.08-.1-.149-.2-.1-.308s.17-.048.26-.053c1.18-.005,2.354,0,3.533-.011a.325.325,0,0,1,.345.234q1.443,3.18,2.9,6.36C68.939,94.361,68.965,94.425,69.024,94.547Z" transform="translate(1400.072 -41.993)"/>
  <g id="Ellipse_25" data-name="Ellipse 25" class="cls-2" transform="translate(1455.855 37.855)">
    <circle class="cls-3" cx="13.072" cy="13.072" r="13.072"/>
    <circle class="cls-4" cx="13.072" cy="13.072" r="12.572"/>
  </g>
</svg>
