<svg id="Groupe_1326" data-name="Groupe 1326" xmlns="http://www.w3.org/2000/svg" viewBox="1519.855 37.855 26.145 26.145">
  <defs>
    <style>
      .cls-1 {
        fill: #fff;
      }

      .cls-2, .cls-4 {
        fill: none;
      }

      .cls-2 {
        stroke: #fff;
      }

      .cls-3 {
        stroke: none;
      }
    </style>
  </defs>
  <path id="Twitter_1_" class="cls-1" d="M-1083.55-41.713a7.942,7.942,0,0,1-2.059.842,3.042,3.042,0,0,0-2.34-1.03,3.316,3.316,0,0,0-3.276,3.276,2.058,2.058,0,0,0,.094.749,9.191,9.191,0,0,1-6.739-3.463,3.232,3.232,0,0,0-.468,1.685,3.141,3.141,0,0,0,1.5,2.714,3.924,3.924,0,0,1-1.5-.374h0a3.4,3.4,0,0,0,2.621,3.276,2.59,2.59,0,0,1-.842.094,1.826,1.826,0,0,1-.655-.094,3.343,3.343,0,0,0,3.089,2.34,6.764,6.764,0,0,1-4.025,1.4h-.749a9.1,9.1,0,0,0,4.96,1.5,9.3,9.3,0,0,0,9.266-9.453v-.468a5.439,5.439,0,0,0,1.591-1.685,6.21,6.21,0,0,1-1.872.562,3.465,3.465,0,0,0,1.4-1.872" transform="translate(2624.685 86.9)"/>
  <g id="Ellipse_26" data-name="Ellipse 26" class="cls-2" transform="translate(1519.855 37.855)">
    <circle class="cls-3" cx="13.072" cy="13.072" r="13.072"/>
    <circle class="cls-4" cx="13.072" cy="13.072" r="12.572"/>
  </g>
</svg>
