<svg xmlns="http://www.w3.org/2000/svg" viewBox="2966.071 4546.965 32.346 26.795">
  <defs>
    <style>
      .cls-1 {
        fill: #008d9e;
      }
    </style>
  </defs>
  <path id="Twitter_1_" class="cls-1" d="M-1067.511-41.517a16.244,16.244,0,0,1-4.21,1.723,6.221,6.221,0,0,0-4.785-2.105,6.781,6.781,0,0,0-6.7,6.7,4.214,4.214,0,0,0,.191,1.531,18.8,18.8,0,0,1-13.781-7.082,6.607,6.607,0,0,0-.957,3.445,6.423,6.423,0,0,0,3.062,5.551,8.024,8.024,0,0,1-3.062-.766h0a6.957,6.957,0,0,0,5.359,6.7,5.3,5.3,0,0,1-1.723.191,3.736,3.736,0,0,1-1.34-.191,6.837,6.837,0,0,0,6.316,4.785,13.831,13.831,0,0,1-8.23,2.871h-1.531a18.607,18.607,0,0,0,10.144,3.062c12.25,0,18.948-10.335,18.948-19.331v-.957a11.124,11.124,0,0,0,3.254-3.445,12.7,12.7,0,0,1-3.828,1.148,7.081,7.081,0,0,0,2.871-3.828" transform="translate(4064.97 4588.865)"/>
</svg>
