<svg xmlns="http://www.w3.org/2000/svg" xmlns:xlink="http://www.w3.org/1999/xlink" viewBox="505.113 4761 166.939 139.641"><defs><style>.a,.c{fill:none;}.a{clip-rule:evenodd;}.b{clip-path:url(#a);}.d{clip-path:url(#b);}.e{fill:#fffefe;}.f{clip-path:url(#c);}</style><clipPath id="a"><path class="a" d="M166.939,16.09V-50.337c-.069-.067-.133-.137-.2-.2C166.3-51,131.893-85.406,131.428-85.848c-7.821-8.213-19.745-13.462-33.109-13.462a46.634,46.634,0,0,0-29.275,9.944c-.064-.035-6.714-7.137-6.575-7.253A43.885,43.885,0,0,0,39.431-103C17.654-103,0-87.929,0-69.338,0-60.691,3.845-52.827,10.126-46.87q.659.694,1.36,1.358.657.694,1.357,1.357c.279.3.562.589.852.877l-.58,14.735a1.766,1.766,0,0,0,1.4,1.8c.15.705,62.734,63.142,62.986,63.379h68.883A20.551,20.551,0,0,0,166.939,16.09" transform="translate(0 103)"/></clipPath><clipPath id="b"><path class="a" d="M0-69.338C0-87.929,17.654-103,39.431-103a43.873,43.873,0,0,1,23.037,6.382C52.24-88.17,45.8-76.2,45.8-62.9A42.077,42.077,0,0,0,54.06-38.1a45.223,45.223,0,0,1-14.629,2.42,45.719,45.719,0,0,1-10.088-1.154L15.935-27.039a1.775,1.775,0,0,1-2.82-1.5l.6-15.311C5.331-50.026,0-59.143,0-69.338" transform="translate(0 103)"/></clipPath><clipPath id="c"><path class="a" d="M99.412-58.888a5.334,5.334,0,0,1-5.334-5.334,5.335,5.335,0,0,1,5.334-5.334,5.334,5.334,0,0,1,5.334,5.334A5.333,5.333,0,0,1,99.412-58.888Zm-15.173,0A5.333,5.333,0,0,1,78.9-64.222a5.334,5.334,0,0,1,5.334-5.334,5.335,5.335,0,0,1,5.334,5.334A5.334,5.334,0,0,1,84.239-58.888Zm-15.173,0a5.333,5.333,0,0,1-5.334-5.334,5.334,5.334,0,0,1,5.334-5.334A5.335,5.335,0,0,1,74.4-64.222,5.334,5.334,0,0,1,69.066-58.888ZM126.2-63.879c0-20.108-19.1-36.41-42.653-36.41S40.9-83.988,40.9-63.879,60-27.468,83.552-27.468a49.448,49.448,0,0,0,10.914-1.248L109.21-17.948a1.775,1.775,0,0,0,2.82-1.5l-.664-16.861C120.439-42.988,126.2-52.851,126.2-63.879Z" transform="translate(-40.9 100.289)"/></clipPath></defs><g transform="translate(505.113 4761)"><g class="b" transform="translate(0)"><path class="c" d="M-5,45.251H175.55V-108H-5Z" transform="translate(-1.805 101.195)"/></g><g class="d" transform="translate(0)"><path class="e" d="M-5-18.084H71.079V-108H-5Z" transform="translate(-1.805 101.195)"/></g><g class="f" transform="translate(55.667 3.69)"><path class="e" d="M35.9-8.992h98.915v-96.3H35.9Z" transform="translate(-42.705 98.484)"/></g></g></svg>