<svg xmlns="http://www.w3.org/2000/svg" viewBox="2803 4550.411 36.557 22.968">
  <defs>
    <style>
      .cls-1 {
        fill: #008c9d;
      }
    </style>
  </defs>
  <path id="Google_x2B__1_" class="cls-1" d="M-1172.425-30.722v4.594h6.316c-.957,2.871-2.488,4.594-6.316,4.594a6.7,6.7,0,0,1-6.7-6.89,6.7,6.7,0,0,1,6.7-6.89,6.566,6.566,0,0,1,4.4,1.723c.957-.957.957-1.148,3.254-3.445a11.5,11.5,0,0,0-7.847-3.062A11.517,11.517,0,0,0-1184.1-28.616a11.517,11.517,0,0,0,11.484,11.484c9.57,0,11.866-8.23,11.1-13.781h-10.91Zm20.862.191v-4.019h-2.871v4.019h-4.211v2.871h4.211v4.019h2.871v-4.019h4.019V-30.53Z" transform="translate(3987.1 4590.511)"/>
</svg>
