<svg id="Groupe_1329" data-name="Groupe 1329" xmlns="http://www.w3.org/2000/svg" viewBox="1581.855 37.855 26.145 26.145">
  <defs>
    <style>
      .cls-1 {
        fill: #fefefe;
      }

      .cls-2, .cls-4 {
        fill: none;
      }

      .cls-2 {
        stroke: #fff;
      }

      .cls-3 {
        stroke: none;
      }
    </style>
  </defs>
  <g id="Groupe_1113" data-name="Groupe 1113" transform="translate(1587.48 42.669)">
    <path id="Tracé_2556" data-name="Tracé 2556" class="cls-1" d="M207.4,200.35a3.569,3.569,0,0,1,5.114-.659,3.564,3.564,0,0,1,1.5,3.007c.009,1.908,0,3.816,0,5.723,0,.153-.039.2-.2.195q-1.46-.012-2.921,0c-.173,0-.195-.05-.195-.195q.006-2.675,0-5.35a1.658,1.658,0,0,0-3.288-.294,2.7,2.7,0,0,0-.017.373c0,1.75,0,3.5,0,5.246,0,.17-.039.22-.221.22-.965-.008-1.934-.008-2.9,0-.169,0-.2-.046-.195-.195q.007-4.572,0-9.141c0-.158.039-.191.2-.191q1.46.012,2.921,0c.164,0,.2.037.2.191C207.389,199.615,207.4,199.951,207.4,200.35Z" transform="translate(-198.246 -193.49)"/>
    <path id="Tracé_2557" data-name="Tracé 2557" class="cls-1" d="M79.814,208.678c0,1.518,0,3.04,0,4.558,0,.153-.039.195-.2.191q-1.447-.012-2.9,0c-.16,0-.221-.025-.221-.2q.006-4.572,0-9.141c0-.166.052-.187.2-.187q1.46.012,2.921,0c.169,0,.195.05.195.195C79.81,205.625,79.814,207.152,79.814,208.678Z" transform="translate(-76.175 -198.305)"/>
    <path id="Tracé_2558" data-name="Tracé 2558" class="cls-1" d="M69,70.883A1.928,1.928,0,0,1,70.981,69,1.907,1.907,0,1,1,69,70.883Z" transform="translate(-69 -69)"/>
  </g>
  <g id="Ellipse_27" data-name="Ellipse 27" class="cls-2" transform="translate(1581.855 37.855)">
    <circle class="cls-3" cx="13.072" cy="13.072" r="13.072"/>
    <circle class="cls-4" cx="13.072" cy="13.072" r="12.572"/>
  </g>
</svg>
